<svg xmlns="http://www.w3.org/2000/svg" viewBox="-11.33024655719557 -66 1489.6633610124452 712.9985213367289">

      <path d="M 0,0 L 10,0
L -1.3302465571955704,129.5053107519269
A 50,50 0 0 0 98.66975344280443,129.5053107519269L 398.2586138691766,145.20609762481007
L 387.3641460257193,269.73043488627826
A 50,50 0 0 0 487.3641460257193,269.73043488627826L 500.9587628312691,276.06970881238874
L 529.243034078731,304.35398005985064
A 20,10 0 0 0 569.243034078731,304.35398005985064L 599.243034078731,304.35398005985064
L 623.9917714202601,329.1027174013798
A 30,10 0 0 0 683.9917714202601,329.1027174013798L 683.9917714202601,369.1027174013798
A 20,10 0 0 0 723.9917714202601,369.1027174013798L 772.2880627347135,382.0436696565058
L 772.2880627347135,412.0436696565058
A 30,10 0 0 0 832.2880627347135,412.0436696565058L 836.6458498720965,461.8534045610931
A 50,30 0 0 0 936.6458498720965,461.8534045610931L 946.6458498720965,461.8534045610931
L 976.6458498720965,513.8149287881594
L 971.416505307237,573.5866106736642
L 1071.0359751164115,582.30218494843
L 1086.0359751164115,608.2829470619631
A 60,20 0 0 0 1206.0359751164115,608.2829470619631L 1305.655444925586,616.9985213367289
A 60,20 0 0 0 1425.655444925586,616.9985213367289L 1443.3331144552496,599.3208518070652
L 1468.3331144552496,599.3208518070652
" fill="none" stroke="black" stroke-width="2" stroke-linejoin="round"/>
      <text x="10" y="-15" font-family="Arial" font-size="15" fill="red">N</text>
<text x="20.00" y="-40.00" font-family="Arial" font-size="16" fill="black">R1 DCL 130'</text>
<path d="M -1.3302465571955704,129.5053107519269 A 50,50 0 0 0 98.66975344280443,129.5053107519269" fill="lightblue" stroke="black" stroke-width="2"/>

      <defs>
        <marker id="arrowhead" markerWidth="10" markerHeight="7" refX="10" refY="3.5" orient="auto">
          <polygon points="0 0, 10 3.5, 0 7" fill="green"/>
        </marker>
      </defs>
      <line x1="98.66975344280443" y1="129.5053107519269" x2="148.66975344280445" y2="79.50531075192691" stroke="green" stroke-width="2" marker-end="url(#arrowhead)"/>
    <text x="248.46418365599052" y="149.3557041883685" font-family="Arial" font-size="30" fill="black">//</text>
<text x="398.2586138691766" y="130.20609762481007" font-family="Arial" font-size="15" fill="red">X</text>
<text x="408.2586138691766" y="130.20609762481007" font-family="Arial" font-size="15" fill="red">X</text>
<text x="408.26" y="105.21" font-family="Arial" font-size="16" fill="black">R2 DCL 125'</text>
<path d="M 387.3641460257193,269.73043488627826 A 50,50 0 0 0 487.3641460257193,269.73043488627826" fill="lightblue" stroke="black" stroke-width="2"/>
<text x="500.9587628312691" y="261.06970881238874" font-family="Arial" font-size="15" fill="red">X</text>
<text x="510.96" y="236.07" font-family="Arial" font-size="16" fill="black">R3 DCR</text>
<path d="M 529.243034078731,304.35398005985064 A 20,10 0 0 0 569.243034078731,304.35398005985064" fill="lightblue" stroke="black" stroke-width="2"/>
<text x="599.243034078731" y="289.35398005985064" font-family="Arial" font-size="15" fill="red">X</text>
<text x="609.243034078731" y="289.35398005985064" font-family="Arial" font-size="15" fill="red">X</text>
<text x="609.24" y="264.35" font-family="Arial" font-size="16" fill="black">R4 DCR 35'</text>
<path d="M 623.9917714202601,329.1027174013798 A 30,10 0 0 0 683.9917714202601,329.1027174013798" fill="lightblue" stroke="black" stroke-width="2"/>
<text x="683.9917714202601" y="314.1027174013798" font-family="Arial" font-size="15" fill="red">X</text>
<text x="693.9917714202601" y="314.1027174013798" font-family="Arial" font-size="15" fill="red">X</text>
<text x="693.99" y="289.10" font-family="Arial" font-size="16" fill="black">R5 DCR 40'</text>
<path d="M 683.9917714202601,369.1027174013798 A 20,10 0 0 0 723.9917714202601,369.1027174013798" fill="lightblue" stroke="black" stroke-width="2"/>
<text x="772.2880627347135" y="367.0436696565058" font-family="Arial" font-size="15" fill="red">X</text>
<text x="782.2880627347135" y="367.0436696565058" font-family="Arial" font-size="15" fill="red">X</text>
<text x="782.29" y="342.04" font-family="Arial" font-size="16" fill="black">R6</text>
<path d="M 772.2880627347135,412.0436696565058 A 30,10 0 0 0 832.2880627347135,412.0436696565058" fill="lightblue" stroke="black" stroke-width="2"/>
<text x="832.2880627347135" y="397.0436696565058" font-family="Arial" font-size="15" fill="red">N</text>
<text x="842.29" y="372.04" font-family="Arial" font-size="16" fill="black">R7</text>
<path d="M 836.6458498720965,461.8534045610931 A 50,30 0 0 0 936.6458498720965,461.8534045610931" fill="lightblue" stroke="black" stroke-width="2"/>
<text x="946.6458498720965" y="446.8534045610931" font-family="Arial" font-size="15" fill="red">X</text>
<text x="956.6458498720965" y="446.8534045610931" font-family="Arial" font-size="15" fill="red">X</text>
<text x="956.65" y="421.85" font-family="Arial" font-size="16" fill="black">R8a</text>
<text x="976.6458498720965" y="498.81492878815936" font-family="Arial" font-size="15" fill="red">X</text>
<text x="986.6458498720965" y="498.81492878815936" font-family="Arial" font-size="15" fill="red">X</text>
<text x="986.65" y="473.81" font-family="Arial" font-size="16" fill="black">R8b</text>
<text x="1021.2262402118242" y="589.9443978110471" font-family="Arial" font-size="30" fill="black">//</text>
<text x="1071.0359751164115" y="567.30218494843" font-family="Arial" font-size="15" fill="red">N</text>
<text x="1081.04" y="542.30" font-family="Arial" font-size="16" fill="black">R9</text>
<path d="M 1086.0359751164115,608.2829470619631 A 60,20 0 0 0 1206.0359751164115,608.2829470619631" fill="lightblue" stroke="black" stroke-width="2"/>
<text x="1255.8457100209987" y="624.6407341993461" font-family="Arial" font-size="30" fill="black">//</text>
<path d="M 1305.655444925586,616.9985213367289 A 60,20 0 0 0 1425.655444925586,616.9985213367289" fill="lightblue" stroke="black" stroke-width="2"/>
<text x="1315.66" y="577.00" font-family="Arial" font-size="16" fill="black">River</text>
<text x="1453.33" y="559.32" font-family="Arial" font-size="16" fill="black">Speed Trail</text>

      <rect x="-11.33024655719557" y="-66" width="1489.6633610124452" height="712.9985213367289" fill="none" stroke="black" stroke-width="1"/>
    </svg>